<?xml version="1.0" encoding="UTF-8"?>
<!-- Generator: Adobe Illustrator 16.0.0, SVG Export Plug-In . SVG Version: 6.00 Build 0)  -->
<!DOCTYPE svg PUBLIC "-//W3C//DTD SVG 1.1//EN" "http://www.w3.org/Graphics/SVG/1.1/DTD/svg11.dtd">
<svg version="1.1" id="Layer_1" xmlns="http://www.w3.org/2000/svg" xmlns:xlink="http://www.w3.org/1999/xlink" x="0px" y="0px" width="400px" height="400px" viewBox="0 0 400 400" enable-background="new 0 0 400 400" xml:space="preserve">
<circle fill="#A3B1C8" cx="200.191" cy="198.246" r="192.646"/>
<path opacity="0.25" fill="#222944" enable-background="new    " d="M369.396,290.41l-73.304-163.065L113.739,310.313l42.5,75.541  c14.118,3.292,28.831,5.039,43.953,5.039C273.198,390.893,336.72,350.277,369.396,290.41z"/>
<polygon fill="#222944" stroke="#333333" stroke-width="8.0269" stroke-miterlimit="10" points="292.121,306.234 117.742,306.234   117.742,72.787 234.133,72.787 292.121,128.974 "/>
<polygon fill="#1D1F29" points="288.084,141.558 224.637,141.558 224.637,76.684 232.523,76.684 288.084,128.292 "/>
<polygon fill="#8F9EBC" stroke="#333333" stroke-width="7.3507" stroke-linecap="round" stroke-linejoin="round" stroke-miterlimit="10" points="  288.555,128.292 236.681,128.292 236.497,76.231 "/>
<rect x="153.552" y="145.907" fill="#FFFFFF" width="20.048" height="116.226"/>
<rect x="181.065" y="172.662" fill="#BACEDD" width="20.047" height="89.47"/>
<rect x="208.573" y="202.764" fill="#A7B9C6" width="20.046" height="59.369"/>
<rect x="237.081" y="234.579" fill="#CCE2F2" width="18.045" height="27.55"/>
<line fill="none" stroke="#222944" stroke-width="7.3507" stroke-linecap="round" stroke-linejoin="round" stroke-miterlimit="10" x1="143.83" y1="204.458" x2="265.904" y2="204.458"/>
<line fill="none" stroke="#222944" stroke-width="7.3507" stroke-linecap="round" stroke-linejoin="round" stroke-miterlimit="10" x1="149.18" y1="174.336" x2="260.555" y2="174.336"/>
<line fill="none" stroke="#222944" stroke-width="7.3507" stroke-linecap="round" stroke-linejoin="round" stroke-miterlimit="10" x1="135.803" y1="234.579" x2="273.931" y2="234.579"/>
</svg>